<mxfile host="app.diagrams.net" modified="2024-07-02T17:03:43.302Z" agent="Mozilla/5.0 (Macintosh; Intel Mac OS X 10_15_7) AppleWebKit/537.36 (KHTML, like Gecko) Chrome/125.0.0.0 Safari/537.36" etag="doXhIsg1vSAVJ7drCBpc" version="24.6.4" type="github">
  <diagram name="Page-1" id="c7488fd3-1785-93aa-aadb-54a6760d102a">
    <mxGraphModel dx="3395" dy="1710" grid="1" gridSize="10" guides="1" tooltips="1" connect="1" arrows="1" fold="1" page="1" pageScale="1" pageWidth="1100" pageHeight="850" background="none" math="0" shadow="0">
      <root>
        <mxCell id="0" />
        <mxCell id="1" parent="0" />
        <mxCell id="2b4e8129b02d487f-1" value="Thesis Flow" style="swimlane;html=1;childLayout=stackLayout;horizontal=1;startSize=20;horizontalStack=0;rounded=0;shadow=0;labelBackgroundColor=none;strokeWidth=1;fontFamily=Verdana;fontSize=8;align=center;" parent="1" vertex="1">
          <mxGeometry x="43" y="46" width="2700" height="980" as="geometry" />
        </mxCell>
        <mxCell id="2b4e8129b02d487f-2" value="Student" style="swimlane;html=1;startSize=20;horizontal=0;" parent="2b4e8129b02d487f-1" vertex="1">
          <mxGeometry y="20" width="2700" height="150" as="geometry" />
        </mxCell>
        <mxCell id="2b4e8129b02d487f-6" value="Apply for Thesis" style="rounded=1;whiteSpace=wrap;html=1;shadow=0;labelBackgroundColor=none;strokeWidth=1;fontFamily=Verdana;fontSize=8;align=center;" parent="2b4e8129b02d487f-2" vertex="1">
          <mxGeometry x="291" y="48.25" width="90" height="53.5" as="geometry" />
        </mxCell>
        <mxCell id="wLagZGArtr6KGIQW5PzV-46" value="" style="edgeStyle=orthogonalEdgeStyle;rounded=0;orthogonalLoop=1;jettySize=auto;html=1;" parent="2b4e8129b02d487f-2" source="wLagZGArtr6KGIQW5PzV-41" target="wLagZGArtr6KGIQW5PzV-45" edge="1">
          <mxGeometry relative="1" as="geometry" />
        </mxCell>
        <mxCell id="wLagZGArtr6KGIQW5PzV-41" value="Meet with Instructor to discuss topic" style="whiteSpace=wrap;html=1;fontSize=8;fontFamily=Verdana;rounded=1;shadow=0;labelBackgroundColor=none;strokeWidth=1;" parent="2b4e8129b02d487f-2" vertex="1">
          <mxGeometry x="737" y="45" width="120" height="60" as="geometry" />
        </mxCell>
        <mxCell id="wLagZGArtr6KGIQW5PzV-45" value="Write Proposal&lt;div&gt;- Introduction&lt;/div&gt;&lt;div&gt;- Problem&lt;/div&gt;&lt;div&gt;- Motivation&lt;/div&gt;&lt;div&gt;- Objective&lt;/div&gt;&lt;div&gt;Timeline&lt;/div&gt;" style="whiteSpace=wrap;html=1;fontSize=8;fontFamily=Verdana;rounded=1;shadow=0;labelBackgroundColor=none;strokeWidth=1;" parent="2b4e8129b02d487f-2" vertex="1">
          <mxGeometry x="957" y="45" width="120" height="60" as="geometry" />
        </mxCell>
        <mxCell id="wLagZGArtr6KGIQW5PzV-79" style="edgeStyle=orthogonalEdgeStyle;rounded=0;orthogonalLoop=1;jettySize=auto;html=1;exitX=1;exitY=0.5;exitDx=0;exitDy=0;entryX=0;entryY=0.5;entryDx=0;entryDy=0;" parent="2b4e8129b02d487f-2" source="wLagZGArtr6KGIQW5PzV-57" target="wLagZGArtr6KGIQW5PzV-59" edge="1">
          <mxGeometry relative="1" as="geometry" />
        </mxCell>
        <mxCell id="wLagZGArtr6KGIQW5PzV-57" value="Write Thesis" style="whiteSpace=wrap;html=1;fontSize=8;fontFamily=Verdana;rounded=1;shadow=0;labelBackgroundColor=none;strokeWidth=1;" parent="2b4e8129b02d487f-2" vertex="1">
          <mxGeometry x="1526" y="45" width="120" height="60" as="geometry" />
        </mxCell>
        <mxCell id="wLagZGArtr6KGIQW5PzV-59" value="Present Thesis 2 weeks before submission" style="whiteSpace=wrap;html=1;fontSize=8;fontFamily=Verdana;rounded=1;shadow=0;labelBackgroundColor=none;strokeWidth=1;" parent="2b4e8129b02d487f-2" vertex="1">
          <mxGeometry x="1904" y="45" width="120" height="60" as="geometry" />
        </mxCell>
        <mxCell id="wLagZGArtr6KGIQW5PzV-63" value="Finalize and Submit Thesis&lt;div&gt;(Changes state to SUBMITTED)&lt;/div&gt;" style="whiteSpace=wrap;html=1;fontSize=8;fontFamily=Verdana;rounded=1;shadow=0;labelBackgroundColor=none;strokeWidth=1;" parent="2b4e8129b02d487f-2" vertex="1">
          <mxGeometry x="2279" y="45" width="120" height="60" as="geometry" />
        </mxCell>
        <mxCell id="2b4e8129b02d487f-3" value="Instructor" style="swimlane;html=1;startSize=20;horizontal=0;" parent="2b4e8129b02d487f-1" vertex="1">
          <mxGeometry y="170" width="2700" height="150" as="geometry" />
        </mxCell>
        <mxCell id="wLagZGArtr6KGIQW5PzV-51" value="" style="edgeStyle=orthogonalEdgeStyle;rounded=0;orthogonalLoop=1;jettySize=auto;html=1;" parent="2b4e8129b02d487f-3" source="wLagZGArtr6KGIQW5PzV-48" target="wLagZGArtr6KGIQW5PzV-50" edge="1">
          <mxGeometry relative="1" as="geometry" />
        </mxCell>
        <mxCell id="wLagZGArtr6KGIQW5PzV-48" value="Give Feedback on Proposal" style="whiteSpace=wrap;html=1;fontSize=8;fontFamily=Verdana;rounded=1;shadow=0;labelBackgroundColor=none;strokeWidth=1;" parent="2b4e8129b02d487f-3" vertex="1">
          <mxGeometry x="957" y="45" width="120" height="60" as="geometry" />
        </mxCell>
        <mxCell id="wLagZGArtr6KGIQW5PzV-56" value="Yes" style="edgeStyle=orthogonalEdgeStyle;rounded=0;orthogonalLoop=1;jettySize=auto;html=1;" parent="2b4e8129b02d487f-3" source="wLagZGArtr6KGIQW5PzV-50" target="wLagZGArtr6KGIQW5PzV-55" edge="1">
          <mxGeometry relative="1" as="geometry" />
        </mxCell>
        <mxCell id="wLagZGArtr6KGIQW5PzV-50" value="Sufficient?" style="rhombus;whiteSpace=wrap;html=1;fontSize=8;fontFamily=Verdana;rounded=1;shadow=0;labelBackgroundColor=none;strokeWidth=1;" parent="2b4e8129b02d487f-3" vertex="1">
          <mxGeometry x="1187" y="35" width="80" height="80" as="geometry" />
        </mxCell>
        <mxCell id="wLagZGArtr6KGIQW5PzV-55" value="Change Thesis State to &quot;IN PROGRESS&quot;" style="whiteSpace=wrap;html=1;fontSize=8;fontFamily=Verdana;rounded=1;shadow=0;labelBackgroundColor=none;strokeWidth=1;" parent="2b4e8129b02d487f-3" vertex="1">
          <mxGeometry x="1351" y="45" width="120" height="60" as="geometry" />
        </mxCell>
        <mxCell id="wLagZGArtr6KGIQW5PzV-65" value="Write Assessment + Grade Suggestion" style="whiteSpace=wrap;html=1;fontSize=8;fontFamily=Verdana;rounded=1;shadow=0;labelBackgroundColor=none;strokeWidth=1;" parent="2b4e8129b02d487f-3" vertex="1">
          <mxGeometry x="2279" y="45" width="120" height="60" as="geometry" />
        </mxCell>
        <mxCell id="wLagZGArtr6KGIQW5PzV-67" value="Give Feedback" style="whiteSpace=wrap;html=1;fontSize=8;fontFamily=Verdana;rounded=1;shadow=0;labelBackgroundColor=none;strokeWidth=1;" parent="2b4e8129b02d487f-3" vertex="1">
          <mxGeometry x="2091" y="45" width="120" height="60" as="geometry" />
        </mxCell>
        <mxCell id="wLagZGArtr6KGIQW5PzV-75" value="Review Timeline / Requirements" style="whiteSpace=wrap;html=1;fontSize=8;fontFamily=Verdana;rounded=1;shadow=0;labelBackgroundColor=none;strokeWidth=1;" parent="2b4e8129b02d487f-3" vertex="1">
          <mxGeometry x="1696" y="45" width="120" height="60" as="geometry" />
        </mxCell>
        <mxCell id="2b4e8129b02d487f-4" value="Grader" style="swimlane;html=1;startSize=20;horizontal=0;" parent="2b4e8129b02d487f-1" vertex="1">
          <mxGeometry y="320" width="2700" height="220" as="geometry" />
        </mxCell>
        <mxCell id="wLagZGArtr6KGIQW5PzV-16" value="" style="edgeStyle=orthogonalEdgeStyle;rounded=0;orthogonalLoop=1;jettySize=auto;html=1;" parent="2b4e8129b02d487f-4" source="wLagZGArtr6KGIQW5PzV-13" target="wLagZGArtr6KGIQW5PzV-15" edge="1">
          <mxGeometry relative="1" as="geometry" />
        </mxCell>
        <mxCell id="wLagZGArtr6KGIQW5PzV-13" value="Review Submissions" style="whiteSpace=wrap;html=1;fontSize=8;fontFamily=Verdana;rounded=1;shadow=0;labelBackgroundColor=none;strokeWidth=1;" parent="2b4e8129b02d487f-4" vertex="1">
          <mxGeometry x="288" y="304" width="94" height="55" as="geometry" />
        </mxCell>
        <mxCell id="wLagZGArtr6KGIQW5PzV-21" value="Yes" style="edgeStyle=orthogonalEdgeStyle;rounded=0;orthogonalLoop=1;jettySize=auto;html=1;" parent="2b4e8129b02d487f-4" source="wLagZGArtr6KGIQW5PzV-15" target="wLagZGArtr6KGIQW5PzV-20" edge="1">
          <mxGeometry relative="1" as="geometry" />
        </mxCell>
        <mxCell id="wLagZGArtr6KGIQW5PzV-15" value="Accepted?" style="rhombus;whiteSpace=wrap;html=1;fontSize=8;fontFamily=Verdana;rounded=1;shadow=0;labelBackgroundColor=none;strokeWidth=1;" parent="2b4e8129b02d487f-4" vertex="1">
          <mxGeometry x="421" y="299.5" width="66" height="65" as="geometry" />
        </mxCell>
        <mxCell id="wLagZGArtr6KGIQW5PzV-20" value="Assign Advisor" style="whiteSpace=wrap;html=1;fontSize=8;fontFamily=Verdana;rounded=1;shadow=0;labelBackgroundColor=none;strokeWidth=1;" parent="2b4e8129b02d487f-4" vertex="1">
          <mxGeometry x="551" y="306.5" width="100" height="52.5" as="geometry" />
        </mxCell>
        <mxCell id="wLagZGArtr6KGIQW5PzV-74" value="" style="edgeStyle=orthogonalEdgeStyle;rounded=0;orthogonalLoop=1;jettySize=auto;html=1;" parent="2b4e8129b02d487f-4" source="wLagZGArtr6KGIQW5PzV-71" target="wLagZGArtr6KGIQW5PzV-73" edge="1">
          <mxGeometry relative="1" as="geometry" />
        </mxCell>
        <mxCell id="wLagZGArtr6KGIQW5PzV-71" value="Review Report and Grade&lt;div&gt;(Changes state to GRADED)&lt;/div&gt;" style="whiteSpace=wrap;html=1;fontSize=8;fontFamily=Verdana;rounded=1;shadow=0;labelBackgroundColor=none;strokeWidth=1;" parent="2b4e8129b02d487f-4" vertex="1">
          <mxGeometry x="2279" y="45" width="120" height="60" as="geometry" />
        </mxCell>
        <mxCell id="wLagZGArtr6KGIQW5PzV-73" value="Submit Grade to Tum Online&lt;div&gt;(Changes state to Finished)&lt;/div&gt;" style="whiteSpace=wrap;html=1;fontSize=8;fontFamily=Verdana;rounded=1;shadow=0;labelBackgroundColor=none;strokeWidth=1;" parent="2b4e8129b02d487f-4" vertex="1">
          <mxGeometry x="2524" y="45" width="120" height="60" as="geometry" />
        </mxCell>
        <mxCell id="wLagZGArtr6KGIQW5PzV-26" value="Reviewer" style="swimlane;html=1;startSize=20;horizontal=0;" parent="2b4e8129b02d487f-1" vertex="1">
          <mxGeometry y="540" width="2700" height="220" as="geometry" />
        </mxCell>
        <mxCell id="wLagZGArtr6KGIQW5PzV-99" style="edgeStyle=orthogonalEdgeStyle;rounded=0;orthogonalLoop=1;jettySize=auto;html=1;exitX=1;exitY=0.5;exitDx=0;exitDy=0;entryX=0;entryY=0.5;entryDx=0;entryDy=0;" parent="wLagZGArtr6KGIQW5PzV-26" source="wLagZGArtr6KGIQW5PzV-36" target="wLagZGArtr6KGIQW5PzV-38" edge="1">
          <mxGeometry relative="1" as="geometry" />
        </mxCell>
        <mxCell id="wLagZGArtr6KGIQW5PzV-36" value="Invite Student (Confluence...)" style="whiteSpace=wrap;html=1;fontSize=8;fontFamily=Verdana;rounded=1;shadow=0;labelBackgroundColor=none;strokeWidth=1;" parent="wLagZGArtr6KGIQW5PzV-26" vertex="1">
          <mxGeometry x="542" y="301" width="120" height="60" as="geometry" />
        </mxCell>
        <mxCell id="wLagZGArtr6KGIQW5PzV-38" value="Notify User about Thesis + Advisor" style="whiteSpace=wrap;html=1;fontSize=8;fontFamily=Verdana;rounded=1;shadow=0;labelBackgroundColor=none;strokeWidth=1;" parent="wLagZGArtr6KGIQW5PzV-26" vertex="1">
          <mxGeometry x="737" y="301" width="120" height="60" as="geometry" />
        </mxCell>
        <mxCell id="wLagZGArtr6KGIQW5PzV-61" value="Notify other Students about presentation so others can attend as well" style="whiteSpace=wrap;html=1;fontSize=8;fontFamily=Verdana;rounded=1;shadow=0;labelBackgroundColor=none;strokeWidth=1;" parent="wLagZGArtr6KGIQW5PzV-26" vertex="1">
          <mxGeometry x="1904" y="300" width="120" height="60" as="geometry" />
        </mxCell>
        <mxCell id="wLagZGArtr6KGIQW5PzV-84" value="Notify Student about Rejection" style="whiteSpace=wrap;html=1;fontSize=8;fontFamily=Verdana;rounded=1;shadow=0;labelBackgroundColor=none;strokeWidth=1;" parent="wLagZGArtr6KGIQW5PzV-26" vertex="1">
          <mxGeometry x="394" y="300" width="120" height="60" as="geometry" />
        </mxCell>
        <mxCell id="wLagZGArtr6KGIQW5PzV-96" value="Notify User for Test Presentation before submission" style="whiteSpace=wrap;html=1;fontSize=8;fontFamily=Verdana;rounded=1;shadow=0;labelBackgroundColor=none;strokeWidth=1;" parent="wLagZGArtr6KGIQW5PzV-26" vertex="1">
          <mxGeometry x="1733" y="300" width="120" height="60" as="geometry" />
        </mxCell>
        <mxCell id="vGqhseO1BKMEhqB3aZHh-14" style="edgeStyle=orthogonalEdgeStyle;rounded=0;orthogonalLoop=1;jettySize=auto;html=1;exitX=1;exitY=0.5;exitDx=0;exitDy=0;entryX=0;entryY=0.5;entryDx=0;entryDy=0;" edge="1" parent="wLagZGArtr6KGIQW5PzV-26" source="vGqhseO1BKMEhqB3aZHh-10" target="vGqhseO1BKMEhqB3aZHh-13">
          <mxGeometry relative="1" as="geometry" />
        </mxCell>
        <mxCell id="vGqhseO1BKMEhqB3aZHh-10" value="" style="ellipse;whiteSpace=wrap;html=1;rounded=0;shadow=0;labelBackgroundColor=none;strokeWidth=1;fontFamily=Verdana;fontSize=8;align=center;" vertex="1" parent="wLagZGArtr6KGIQW5PzV-26">
          <mxGeometry x="37" y="95" width="30" height="30" as="geometry" />
        </mxCell>
        <mxCell id="vGqhseO1BKMEhqB3aZHh-13" value="Create Thesis Topic" style="rounded=1;whiteSpace=wrap;html=1;shadow=0;labelBackgroundColor=none;strokeWidth=1;fontFamily=Verdana;fontSize=8;align=center;" vertex="1" parent="wLagZGArtr6KGIQW5PzV-26">
          <mxGeometry x="117" y="83.25" width="90" height="53.5" as="geometry" />
        </mxCell>
        <mxCell id="vGqhseO1BKMEhqB3aZHh-2" value="System" style="swimlane;html=1;startSize=20;horizontal=0;" vertex="1" parent="2b4e8129b02d487f-1">
          <mxGeometry y="760" width="2700" height="220" as="geometry" />
        </mxCell>
        <mxCell id="wLagZGArtr6KGIQW5PzV-44" style="edgeStyle=orthogonalEdgeStyle;rounded=0;orthogonalLoop=1;jettySize=auto;html=1;exitX=0.5;exitY=1;exitDx=0;exitDy=0;entryX=0.5;entryY=0;entryDx=0;entryDy=0;" parent="2b4e8129b02d487f-1" source="2b4e8129b02d487f-6" target="wLagZGArtr6KGIQW5PzV-13" edge="1">
          <mxGeometry relative="1" as="geometry" />
        </mxCell>
        <mxCell id="wLagZGArtr6KGIQW5PzV-49" value="" style="edgeStyle=orthogonalEdgeStyle;rounded=0;orthogonalLoop=1;jettySize=auto;html=1;" parent="2b4e8129b02d487f-1" source="wLagZGArtr6KGIQW5PzV-45" target="wLagZGArtr6KGIQW5PzV-48" edge="1">
          <mxGeometry relative="1" as="geometry" />
        </mxCell>
        <mxCell id="wLagZGArtr6KGIQW5PzV-52" style="edgeStyle=orthogonalEdgeStyle;rounded=0;orthogonalLoop=1;jettySize=auto;html=1;exitX=0.5;exitY=0;exitDx=0;exitDy=0;entryX=1;entryY=0.5;entryDx=0;entryDy=0;" parent="2b4e8129b02d487f-1" source="wLagZGArtr6KGIQW5PzV-50" target="wLagZGArtr6KGIQW5PzV-45" edge="1">
          <mxGeometry relative="1" as="geometry" />
        </mxCell>
        <mxCell id="wLagZGArtr6KGIQW5PzV-54" value="No" style="edgeLabel;html=1;align=center;verticalAlign=middle;resizable=0;points=[];" parent="wLagZGArtr6KGIQW5PzV-52" vertex="1" connectable="0">
          <mxGeometry x="0.4255" relative="1" as="geometry">
            <mxPoint as="offset" />
          </mxGeometry>
        </mxCell>
        <mxCell id="wLagZGArtr6KGIQW5PzV-62" value="" style="edgeStyle=orthogonalEdgeStyle;rounded=0;orthogonalLoop=1;jettySize=auto;html=1;" parent="2b4e8129b02d487f-1" source="wLagZGArtr6KGIQW5PzV-59" target="wLagZGArtr6KGIQW5PzV-61" edge="1">
          <mxGeometry relative="1" as="geometry" />
        </mxCell>
        <mxCell id="wLagZGArtr6KGIQW5PzV-66" value="" style="edgeStyle=orthogonalEdgeStyle;rounded=0;orthogonalLoop=1;jettySize=auto;html=1;" parent="2b4e8129b02d487f-1" source="wLagZGArtr6KGIQW5PzV-63" target="wLagZGArtr6KGIQW5PzV-65" edge="1">
          <mxGeometry relative="1" as="geometry" />
        </mxCell>
        <mxCell id="wLagZGArtr6KGIQW5PzV-69" style="edgeStyle=orthogonalEdgeStyle;rounded=0;orthogonalLoop=1;jettySize=auto;html=1;exitX=1;exitY=0.5;exitDx=0;exitDy=0;entryX=0;entryY=0.5;entryDx=0;entryDy=0;" parent="2b4e8129b02d487f-1" source="wLagZGArtr6KGIQW5PzV-67" target="wLagZGArtr6KGIQW5PzV-63" edge="1">
          <mxGeometry relative="1" as="geometry" />
        </mxCell>
        <mxCell id="wLagZGArtr6KGIQW5PzV-70" style="edgeStyle=orthogonalEdgeStyle;rounded=0;orthogonalLoop=1;jettySize=auto;html=1;exitX=1;exitY=0.5;exitDx=0;exitDy=0;entryX=0;entryY=0.5;entryDx=0;entryDy=0;" parent="2b4e8129b02d487f-1" source="wLagZGArtr6KGIQW5PzV-59" target="wLagZGArtr6KGIQW5PzV-67" edge="1">
          <mxGeometry relative="1" as="geometry" />
        </mxCell>
        <mxCell id="wLagZGArtr6KGIQW5PzV-72" value="" style="edgeStyle=orthogonalEdgeStyle;rounded=0;orthogonalLoop=1;jettySize=auto;html=1;" parent="2b4e8129b02d487f-1" source="wLagZGArtr6KGIQW5PzV-65" target="wLagZGArtr6KGIQW5PzV-71" edge="1">
          <mxGeometry relative="1" as="geometry" />
        </mxCell>
        <mxCell id="wLagZGArtr6KGIQW5PzV-78" style="edgeStyle=orthogonalEdgeStyle;rounded=0;orthogonalLoop=1;jettySize=auto;html=1;exitX=0.5;exitY=1;exitDx=0;exitDy=0;entryX=0;entryY=0.5;entryDx=0;entryDy=0;" parent="2b4e8129b02d487f-1" source="wLagZGArtr6KGIQW5PzV-57" target="wLagZGArtr6KGIQW5PzV-75" edge="1">
          <mxGeometry relative="1" as="geometry" />
        </mxCell>
        <mxCell id="wLagZGArtr6KGIQW5PzV-81" style="edgeStyle=orthogonalEdgeStyle;rounded=0;orthogonalLoop=1;jettySize=auto;html=1;exitX=0;exitY=0.5;exitDx=0;exitDy=0;entryX=0.5;entryY=1;entryDx=0;entryDy=0;" parent="2b4e8129b02d487f-1" source="wLagZGArtr6KGIQW5PzV-75" target="wLagZGArtr6KGIQW5PzV-57" edge="1">
          <mxGeometry relative="1" as="geometry" />
        </mxCell>
        <mxCell id="wLagZGArtr6KGIQW5PzV-83" style="edgeStyle=orthogonalEdgeStyle;rounded=0;orthogonalLoop=1;jettySize=auto;html=1;exitX=1;exitY=0.5;exitDx=0;exitDy=0;entryX=0;entryY=0.5;entryDx=0;entryDy=0;" parent="2b4e8129b02d487f-1" source="wLagZGArtr6KGIQW5PzV-55" target="wLagZGArtr6KGIQW5PzV-57" edge="1">
          <mxGeometry relative="1" as="geometry" />
        </mxCell>
        <mxCell id="wLagZGArtr6KGIQW5PzV-85" value="" style="edgeStyle=orthogonalEdgeStyle;rounded=0;orthogonalLoop=1;jettySize=auto;html=1;" parent="2b4e8129b02d487f-1" source="wLagZGArtr6KGIQW5PzV-15" target="wLagZGArtr6KGIQW5PzV-84" edge="1">
          <mxGeometry relative="1" as="geometry" />
        </mxCell>
        <mxCell id="wLagZGArtr6KGIQW5PzV-86" value="No" style="edgeLabel;html=1;align=center;verticalAlign=middle;resizable=0;points=[];" parent="wLagZGArtr6KGIQW5PzV-85" vertex="1" connectable="0">
          <mxGeometry x="-0.5318" y="2" relative="1" as="geometry">
            <mxPoint y="1" as="offset" />
          </mxGeometry>
        </mxCell>
        <mxCell id="wLagZGArtr6KGIQW5PzV-88" value="" style="edgeStyle=orthogonalEdgeStyle;rounded=0;orthogonalLoop=1;jettySize=auto;html=1;entryX=0.5;entryY=0;entryDx=0;entryDy=0;" parent="2b4e8129b02d487f-1" source="wLagZGArtr6KGIQW5PzV-20" target="wLagZGArtr6KGIQW5PzV-36" edge="1">
          <mxGeometry relative="1" as="geometry">
            <mxPoint x="601" y="840" as="targetPoint" />
          </mxGeometry>
        </mxCell>
        <mxCell id="wLagZGArtr6KGIQW5PzV-92" style="edgeStyle=orthogonalEdgeStyle;rounded=0;orthogonalLoop=1;jettySize=auto;html=1;exitX=0.5;exitY=0;exitDx=0;exitDy=0;entryX=0.5;entryY=1;entryDx=0;entryDy=0;" parent="2b4e8129b02d487f-1" source="wLagZGArtr6KGIQW5PzV-38" target="wLagZGArtr6KGIQW5PzV-41" edge="1">
          <mxGeometry relative="1" as="geometry" />
        </mxCell>
        <mxCell id="wLagZGArtr6KGIQW5PzV-98" style="edgeStyle=orthogonalEdgeStyle;rounded=0;orthogonalLoop=1;jettySize=auto;html=1;exitX=0.5;exitY=0;exitDx=0;exitDy=0;entryX=0.25;entryY=1;entryDx=0;entryDy=0;" parent="2b4e8129b02d487f-1" source="wLagZGArtr6KGIQW5PzV-96" target="wLagZGArtr6KGIQW5PzV-59" edge="1">
          <mxGeometry relative="1" as="geometry" />
        </mxCell>
        <mxCell id="vGqhseO1BKMEhqB3aZHh-15" style="edgeStyle=orthogonalEdgeStyle;rounded=0;orthogonalLoop=1;jettySize=auto;html=1;exitX=0.5;exitY=0;exitDx=0;exitDy=0;entryX=0;entryY=0.5;entryDx=0;entryDy=0;" edge="1" parent="2b4e8129b02d487f-1" source="vGqhseO1BKMEhqB3aZHh-13" target="2b4e8129b02d487f-6">
          <mxGeometry relative="1" as="geometry" />
        </mxCell>
      </root>
    </mxGraphModel>
  </diagram>
</mxfile>
